<mxfile host="app.diagrams.net" modified="2021-06-11T21:06:53.358Z" agent="5.0 (Macintosh; Intel Mac OS X 10_15_7) AppleWebKit/537.36 (KHTML, like Gecko) Chrome/91.0.4472.77 Safari/537.36" etag="iRg3m5ySZplfP6BMulCr" version="14.7.7" type="github">
  <diagram id="lavKBOKT0vrfUv36bKi-" name="Page-1">
    <mxGraphModel dx="2148" dy="763" grid="1" gridSize="10" guides="1" tooltips="1" connect="1" arrows="1" fold="1" page="1" pageScale="1" pageWidth="850" pageHeight="1100" math="0" shadow="0">
      <root>
        <mxCell id="0" />
        <mxCell id="1" parent="0" />
        <mxCell id="OqbCdRtRxpRRbarb4c1A-1" value="Update Business Rule&lt;br&gt;" style="whiteSpace=wrap;html=1;aspect=fixed;" vertex="1" parent="1">
          <mxGeometry x="200" y="50" width="130" height="130" as="geometry" />
        </mxCell>
        <mxCell id="OqbCdRtRxpRRbarb4c1A-14" value="" style="edgeStyle=orthogonalEdgeStyle;rounded=0;orthogonalLoop=1;jettySize=auto;html=1;" edge="1" parent="1" source="OqbCdRtRxpRRbarb4c1A-2" target="OqbCdRtRxpRRbarb4c1A-3">
          <mxGeometry relative="1" as="geometry" />
        </mxCell>
        <mxCell id="OqbCdRtRxpRRbarb4c1A-2" value="Asyncronously&lt;br&gt;&lt;br&gt;" style="shape=process;whiteSpace=wrap;html=1;backgroundOutline=1;" vertex="1" parent="1">
          <mxGeometry x="120" y="250" width="280" height="70" as="geometry" />
        </mxCell>
        <mxCell id="OqbCdRtRxpRRbarb4c1A-15" value="" style="edgeStyle=orthogonalEdgeStyle;rounded=0;orthogonalLoop=1;jettySize=auto;html=1;" edge="1" parent="1" source="OqbCdRtRxpRRbarb4c1A-3" target="OqbCdRtRxpRRbarb4c1A-5">
          <mxGeometry relative="1" as="geometry" />
        </mxCell>
        <mxCell id="OqbCdRtRxpRRbarb4c1A-3" value="Related to SI Incident" style="rhombus;whiteSpace=wrap;html=1;" vertex="1" parent="1">
          <mxGeometry x="207.5" y="370" width="105" height="80" as="geometry" />
        </mxCell>
        <mxCell id="OqbCdRtRxpRRbarb4c1A-7" value="No" style="edgeStyle=orthogonalEdgeStyle;rounded=0;orthogonalLoop=1;jettySize=auto;html=1;" edge="1" parent="1" source="OqbCdRtRxpRRbarb4c1A-5">
          <mxGeometry x="0.0244" y="20" relative="1" as="geometry">
            <mxPoint x="480" y="520" as="targetPoint" />
            <mxPoint as="offset" />
          </mxGeometry>
        </mxCell>
        <mxCell id="OqbCdRtRxpRRbarb4c1A-12" value="" style="edgeStyle=orthogonalEdgeStyle;rounded=0;orthogonalLoop=1;jettySize=auto;html=1;" edge="1" parent="1" source="OqbCdRtRxpRRbarb4c1A-5" target="OqbCdRtRxpRRbarb4c1A-11">
          <mxGeometry relative="1" as="geometry" />
        </mxCell>
        <mxCell id="OqbCdRtRxpRRbarb4c1A-5" value="Last Related SI Incident?" style="rhombus;whiteSpace=wrap;html=1;" vertex="1" parent="1">
          <mxGeometry x="207.5" y="480" width="105" height="80" as="geometry" />
        </mxCell>
        <mxCell id="OqbCdRtRxpRRbarb4c1A-8" value="Copied Script Include Triggers&lt;br&gt;Passing in No" style="whiteSpace=wrap;html=1;aspect=fixed;" vertex="1" parent="1">
          <mxGeometry x="485" y="480" width="80" height="80" as="geometry" />
        </mxCell>
        <mxCell id="OqbCdRtRxpRRbarb4c1A-9" value="&lt;font style=&quot;font-size: 12px&quot;&gt;IBM_sn_si.SecurityIncidentUtils().updateSecurityIncidentOnTaskChange(current,NO)&lt;br&gt;&lt;br&gt;IBM__updateSecurityIncidentStateFromTask: function(si, task,NO)&lt;br&gt;{Update worknotes : this isn&#39;t the last incident to close so we&#39;re not going to set to Review yet.&lt;/font&gt;" style="shape=process;whiteSpace=wrap;html=1;backgroundOutline=1;align=left;" vertex="1" parent="1">
          <mxGeometry x="325" y="600" width="400" height="150" as="geometry" />
        </mxCell>
        <mxCell id="OqbCdRtRxpRRbarb4c1A-10" value="" style="endArrow=classic;html=1;entryX=0.5;entryY=0;entryDx=0;entryDy=0;exitX=0.5;exitY=1;exitDx=0;exitDy=0;" edge="1" parent="1" source="OqbCdRtRxpRRbarb4c1A-8" target="OqbCdRtRxpRRbarb4c1A-9">
          <mxGeometry width="50" height="50" relative="1" as="geometry">
            <mxPoint x="330" y="570" as="sourcePoint" />
            <mxPoint x="380" y="520" as="targetPoint" />
          </mxGeometry>
        </mxCell>
        <mxCell id="OqbCdRtRxpRRbarb4c1A-16" value="" style="edgeStyle=orthogonalEdgeStyle;rounded=0;orthogonalLoop=1;jettySize=auto;html=1;" edge="1" parent="1" source="OqbCdRtRxpRRbarb4c1A-11" target="OqbCdRtRxpRRbarb4c1A-13">
          <mxGeometry relative="1" as="geometry" />
        </mxCell>
        <mxCell id="OqbCdRtRxpRRbarb4c1A-11" value="Copied Script Include Triggers Passing in Yes" style="whiteSpace=wrap;html=1;" vertex="1" parent="1">
          <mxGeometry x="-60" y="490" width="120" height="60" as="geometry" />
        </mxCell>
        <mxCell id="OqbCdRtRxpRRbarb4c1A-13" value="IBM_sn_si.SecurityIncidentUtils().updateSecurityIncidentOnTaskChange(current,Yes)&lt;br&gt;&lt;br&gt;IBM__updateSecurityIncidentStateFromTask: function(si, task,Yes)&lt;br&gt;{Update as normal stating review has been switched on state.}" style="shape=process;whiteSpace=wrap;html=1;backgroundOutline=1;align=left;" vertex="1" parent="1">
          <mxGeometry x="-190" y="600" width="380" height="150" as="geometry" />
        </mxCell>
      </root>
    </mxGraphModel>
  </diagram>
</mxfile>
